<svg xmlns="http://www.w3.org/2000/svg" width="131.581" height="115" viewBox="0 0 131.581 115"><g transform="translate(-42 -554.5)"><g transform="translate(42 554.5)" opacity="0.3"><path d="M5.228,10.425A5.213,5.213,0,1,0,0,5.212,5.221,5.221,0,0,0,5.228,10.425Z" fill="#a4cafa"/><path d="M35.509,10.425a5.213,5.213,0,1,0-5.228-5.213A5.22,5.22,0,0,0,35.509,10.425Z" fill="#a4cafa"/><path d="M65.79,10.425a5.213,5.213,0,1,0-5.228-5.213A5.221,5.221,0,0,0,65.79,10.425Z" fill="#a4cafa"/><path d="M96.072,10.425a5.213,5.213,0,1,0-5.228-5.213A5.221,5.221,0,0,0,96.072,10.425Z" fill="#a4cafa"/><path d="M126.353,10.425a5.213,5.213,0,1,0-5.229-5.213A5.221,5.221,0,0,0,126.353,10.425Z" fill="#a4cafa"/><path d="M5.228,36.6A5.212,5.212,0,1,0,0,31.383,5.22,5.22,0,0,0,5.228,36.6Z" fill="#a4cafa"/><path d="M35.509,36.6a5.212,5.212,0,1,0-5.228-5.212A5.22,5.22,0,0,0,35.509,36.6Z" fill="#a4cafa"/><path d="M65.79,36.6a5.212,5.212,0,1,0-5.228-5.212A5.22,5.22,0,0,0,65.79,36.6Z" fill="#a4cafa"/><path d="M96.072,36.6a5.212,5.212,0,1,0-5.228-5.212A5.22,5.22,0,0,0,96.072,36.6Z" fill="#a4cafa"/><path d="M126.353,36.6a5.212,5.212,0,1,0-5.229-5.212A5.22,5.22,0,0,0,126.353,36.6Z" fill="#a4cafa"/><path d="M5.228,62.713A5.213,5.213,0,1,0,0,57.5,5.22,5.22,0,0,0,5.228,62.713Z" fill="#a4cafa"/><path d="M35.509,62.713A5.213,5.213,0,1,0,30.281,57.5,5.22,5.22,0,0,0,35.509,62.713Z" fill="#a4cafa"/><path d="M65.79,62.713A5.213,5.213,0,1,0,60.562,57.5,5.22,5.22,0,0,0,65.79,62.713Z" fill="#a4cafa"/><path d="M96.072,62.713A5.213,5.213,0,1,0,90.843,57.5,5.22,5.22,0,0,0,96.072,62.713Z" fill="#a4cafa"/><path d="M126.353,62.713a5.213,5.213,0,1,0-5.229-5.213A5.22,5.22,0,0,0,126.353,62.713Z" fill="#a4cafa"/><path d="M5.228,88.883A5.213,5.213,0,1,0,0,83.671,5.221,5.221,0,0,0,5.228,88.883Z" fill="#a4cafa"/><path d="M35.509,88.883a5.213,5.213,0,1,0-5.228-5.213A5.221,5.221,0,0,0,35.509,88.883Z" fill="#a4cafa"/><path d="M65.79,88.883a5.213,5.213,0,1,0-5.228-5.213A5.221,5.221,0,0,0,65.79,88.883Z" fill="#a4cafa"/><path d="M96.072,88.883a5.213,5.213,0,1,0-5.228-5.213A5.221,5.221,0,0,0,96.072,88.883Z" fill="#a4cafa"/><path d="M126.353,88.883a5.213,5.213,0,1,0-5.229-5.213A5.221,5.221,0,0,0,126.353,88.883Z" fill="#a4cafa"/><path d="M5.228,115A5.213,5.213,0,1,0,0,109.788,5.221,5.221,0,0,0,5.228,115Z" fill="#a4cafa"/><path d="M35.509,115a5.213,5.213,0,1,0-5.228-5.212A5.221,5.221,0,0,0,35.509,115Z" fill="#a4cafa"/><path d="M65.79,115a5.213,5.213,0,1,0-5.228-5.212A5.221,5.221,0,0,0,65.79,115Z" fill="#a4cafa"/><path d="M96.072,115a5.213,5.213,0,1,0-5.228-5.212A5.221,5.221,0,0,0,96.072,115Z" fill="#a4cafa"/><path d="M126.353,115a5.213,5.213,0,1,0-5.229-5.212A5.221,5.221,0,0,0,126.353,115Z" fill="#a4cafa"/></g></g></svg>